<mxfile host="app.diagrams.net" agent="Mozilla/5.0 (Windows NT 10.0; Win64; x64) AppleWebKit/537.36 (KHTML, like Gecko) Chrome/128.0.0.0 Safari/537.36" version="24.7.13">
  <diagram name="Page-1" id="jyS5RfbVwR4usH-cOUg7">
    <mxGraphModel grid="1" page="1" gridSize="10" guides="1" tooltips="1" connect="1" arrows="1" fold="1" pageScale="1" pageWidth="827" pageHeight="1169" math="0" shadow="0">
      <root>
        <mxCell id="0" />
        <mxCell id="1" parent="0" />
        <mxCell id="o1Bgy9Y4XnUkoTgpbDFX-18" value="" style="rounded=0;whiteSpace=wrap;html=1;" vertex="1" parent="1">
          <mxGeometry x="165" y="10" width="960" height="870" as="geometry" />
        </mxCell>
        <mxCell id="o1Bgy9Y4XnUkoTgpbDFX-11" value="Se connecter" style="ellipse;whiteSpace=wrap;html=1;" vertex="1" parent="1">
          <mxGeometry x="474" y="80" width="140" height="70" as="geometry" />
        </mxCell>
        <mxCell id="o1Bgy9Y4XnUkoTgpbDFX-13" value="Recherche filtrée de film" style="ellipse;whiteSpace=wrap;html=1;" vertex="1" parent="1">
          <mxGeometry x="220" y="308" width="140" height="70" as="geometry" />
        </mxCell>
        <mxCell id="o1Bgy9Y4XnUkoTgpbDFX-14" value="Obtenir des informations sur le film" style="ellipse;whiteSpace=wrap;html=1;" vertex="1" parent="1">
          <mxGeometry x="473" y="186" width="140" height="74" as="geometry" />
        </mxCell>
        <mxCell id="o1Bgy9Y4XnUkoTgpbDFX-16" value="Noter sur 10 un film" style="ellipse;whiteSpace=wrap;html=1;" vertex="1" parent="1">
          <mxGeometry x="472" y="478" width="140" height="70" as="geometry" />
        </mxCell>
        <mxCell id="o1Bgy9Y4XnUkoTgpbDFX-26" value="Rédiger un avis sur un film" style="ellipse;whiteSpace=wrap;html=1;" vertex="1" parent="1">
          <mxGeometry x="660" y="509" width="156" height="70" as="geometry" />
        </mxCell>
        <mxCell id="o1Bgy9Y4XnUkoTgpbDFX-27" value="Rechercher un autre utilisateur" style="ellipse;whiteSpace=wrap;html=1;" vertex="1" parent="1">
          <mxGeometry x="239" y="680" width="141" height="70" as="geometry" />
        </mxCell>
        <mxCell id="o1Bgy9Y4XnUkoTgpbDFX-30" value="Consulter ses recommandations" style="ellipse;whiteSpace=wrap;html=1;" vertex="1" parent="1">
          <mxGeometry x="239" y="780" width="141" height="70" as="geometry" />
        </mxCell>
        <mxCell id="o1Bgy9Y4XnUkoTgpbDFX-35" value="Consulter les avis/ la note sur un film" style="ellipse;whiteSpace=wrap;html=1;" vertex="1" parent="1">
          <mxGeometry x="470" y="330" width="150" height="79" as="geometry" />
        </mxCell>
        <mxCell id="o1Bgy9Y4XnUkoTgpbDFX-36" value="Ajouter un utilisateur en éclaireur" style="ellipse;whiteSpace=wrap;html=1;" vertex="1" parent="1">
          <mxGeometry x="470" y="637" width="141" height="70" as="geometry" />
        </mxCell>
        <mxCell id="o1Bgy9Y4XnUkoTgpbDFX-40" value="Consulter les critiques de l&#39;utilisateur / le nombre de films vus" style="ellipse;whiteSpace=wrap;html=1;" vertex="1" parent="1">
          <mxGeometry x="468" y="730" width="152" height="86" as="geometry" />
        </mxCell>
        <mxCell id="o1Bgy9Y4XnUkoTgpbDFX-42" value="Consulter les films vus en commun" style="ellipse;whiteSpace=wrap;html=1;" vertex="1" parent="1">
          <mxGeometry x="661" y="608" width="157" height="68" as="geometry" />
        </mxCell>
        <mxCell id="o1Bgy9Y4XnUkoTgpbDFX-43" value="Se désabonner d&#39;un éclaireur" style="ellipse;whiteSpace=wrap;html=1;" vertex="1" parent="1">
          <mxGeometry x="661" y="685" width="157" height="68" as="geometry" />
        </mxCell>
        <mxCell id="o1Bgy9Y4XnUkoTgpbDFX-48" value="" style="endArrow=none;html=1;rounded=0;entryX=0;entryY=0.5;entryDx=0;entryDy=0;exitX=1;exitY=0.5;exitDx=0;exitDy=0;fillColor=#e51400;strokeColor=#240000;" edge="1" parent="1" source="o1Bgy9Y4XnUkoTgpbDFX-13" target="o1Bgy9Y4XnUkoTgpbDFX-14">
          <mxGeometry width="50" height="50" relative="1" as="geometry">
            <mxPoint x="95" y="385" as="sourcePoint" />
            <mxPoint x="260" y="185" as="targetPoint" />
          </mxGeometry>
        </mxCell>
        <mxCell id="o1Bgy9Y4XnUkoTgpbDFX-50" value="" style="endArrow=none;html=1;rounded=0;entryX=0;entryY=0.5;entryDx=0;entryDy=0;fillColor=#e51400;strokeColor=#000000;exitX=1;exitY=0.5;exitDx=0;exitDy=0;" edge="1" parent="1" source="o1Bgy9Y4XnUkoTgpbDFX-13" target="o1Bgy9Y4XnUkoTgpbDFX-35">
          <mxGeometry width="50" height="50" relative="1" as="geometry">
            <mxPoint x="40" y="440" as="sourcePoint" />
            <mxPoint x="280" y="205" as="targetPoint" />
          </mxGeometry>
        </mxCell>
        <mxCell id="o1Bgy9Y4XnUkoTgpbDFX-51" value="" style="endArrow=none;html=1;rounded=0;entryX=0;entryY=0.5;entryDx=0;entryDy=0;exitX=1;exitY=0.5;exitDx=0;exitDy=0;fillColor=#e51400;strokeColor=#000000;" edge="1" parent="1" source="o1Bgy9Y4XnUkoTgpbDFX-13" target="o1Bgy9Y4XnUkoTgpbDFX-16">
          <mxGeometry width="50" height="50" relative="1" as="geometry">
            <mxPoint x="125" y="415" as="sourcePoint" />
            <mxPoint x="290" y="215" as="targetPoint" />
          </mxGeometry>
        </mxCell>
        <mxCell id="o1Bgy9Y4XnUkoTgpbDFX-52" value="" style="endArrow=none;html=1;rounded=0;entryX=0;entryY=0.5;entryDx=0;entryDy=0;exitX=1;exitY=0.5;exitDx=0;exitDy=0;fillColor=#e51400;strokeColor=#000000;" edge="1" parent="1" source="o1Bgy9Y4XnUkoTgpbDFX-16" target="o1Bgy9Y4XnUkoTgpbDFX-26">
          <mxGeometry width="50" height="50" relative="1" as="geometry">
            <mxPoint x="135" y="425" as="sourcePoint" />
            <mxPoint x="300" y="225" as="targetPoint" />
          </mxGeometry>
        </mxCell>
        <mxCell id="o1Bgy9Y4XnUkoTgpbDFX-53" value="" style="endArrow=none;html=1;rounded=0;entryX=0;entryY=0.5;entryDx=0;entryDy=0;exitX=1;exitY=0.5;exitDx=0;exitDy=0;fillColor=#e51400;strokeColor=#050000;" edge="1" parent="1" source="o1Bgy9Y4XnUkoTgpbDFX-27" target="o1Bgy9Y4XnUkoTgpbDFX-36">
          <mxGeometry width="50" height="50" relative="1" as="geometry">
            <mxPoint x="145" y="435" as="sourcePoint" />
            <mxPoint x="310" y="235" as="targetPoint" />
          </mxGeometry>
        </mxCell>
        <mxCell id="o1Bgy9Y4XnUkoTgpbDFX-54" value="" style="endArrow=none;html=1;rounded=0;entryX=0;entryY=0.5;entryDx=0;entryDy=0;exitX=1;exitY=0.5;exitDx=0;exitDy=0;fillColor=#e51400;strokeColor=#000000;" edge="1" parent="1" source="o1Bgy9Y4XnUkoTgpbDFX-27" target="o1Bgy9Y4XnUkoTgpbDFX-40">
          <mxGeometry width="50" height="50" relative="1" as="geometry">
            <mxPoint x="155" y="445" as="sourcePoint" />
            <mxPoint x="320" y="245" as="targetPoint" />
          </mxGeometry>
        </mxCell>
        <mxCell id="o1Bgy9Y4XnUkoTgpbDFX-55" value="" style="endArrow=none;html=1;rounded=0;entryX=0;entryY=0.5;entryDx=0;entryDy=0;exitX=1;exitY=0.5;exitDx=0;exitDy=0;fillColor=#e51400;strokeColor=#000000;" edge="1" parent="1" source="o1Bgy9Y4XnUkoTgpbDFX-36" target="o1Bgy9Y4XnUkoTgpbDFX-42">
          <mxGeometry width="50" height="50" relative="1" as="geometry">
            <mxPoint x="165" y="455" as="sourcePoint" />
            <mxPoint x="330" y="255" as="targetPoint" />
          </mxGeometry>
        </mxCell>
        <mxCell id="o1Bgy9Y4XnUkoTgpbDFX-56" value="" style="endArrow=none;html=1;rounded=0;entryX=0;entryY=0.5;entryDx=0;entryDy=0;exitX=1;exitY=0.5;exitDx=0;exitDy=0;fillColor=#e51400;strokeColor=#000000;" edge="1" parent="1" source="o1Bgy9Y4XnUkoTgpbDFX-36" target="o1Bgy9Y4XnUkoTgpbDFX-43">
          <mxGeometry width="50" height="50" relative="1" as="geometry">
            <mxPoint x="175" y="465" as="sourcePoint" />
            <mxPoint x="340" y="265" as="targetPoint" />
          </mxGeometry>
        </mxCell>
        <mxCell id="o1Bgy9Y4XnUkoTgpbDFX-68" value="Modifier ses informations personnelles" style="ellipse;whiteSpace=wrap;html=1;" vertex="1" parent="1">
          <mxGeometry x="669" y="24" width="151" height="76" as="geometry" />
        </mxCell>
        <mxCell id="o1Bgy9Y4XnUkoTgpbDFX-69" value="Supprimer son compte" style="ellipse;whiteSpace=wrap;html=1;" vertex="1" parent="1">
          <mxGeometry x="668" y="118" width="140" height="70" as="geometry" />
        </mxCell>
        <mxCell id="o1Bgy9Y4XnUkoTgpbDFX-70" value="" style="endArrow=none;html=1;rounded=0;entryX=0;entryY=0.5;entryDx=0;entryDy=0;exitX=1;exitY=0.5;exitDx=0;exitDy=0;fillColor=#e51400;strokeColor=#000000;" edge="1" parent="1" source="o1Bgy9Y4XnUkoTgpbDFX-11" target="o1Bgy9Y4XnUkoTgpbDFX-69">
          <mxGeometry width="50" height="50" relative="1" as="geometry">
            <mxPoint x="65" y="355" as="sourcePoint" />
            <mxPoint x="230" y="155" as="targetPoint" />
          </mxGeometry>
        </mxCell>
        <mxCell id="o1Bgy9Y4XnUkoTgpbDFX-71" value="" style="endArrow=none;html=1;rounded=0;entryX=0;entryY=0.5;entryDx=0;entryDy=0;exitX=1;exitY=0.5;exitDx=0;exitDy=0;fillColor=#e51400;strokeColor=#050000;" edge="1" parent="1" source="o1Bgy9Y4XnUkoTgpbDFX-11" target="o1Bgy9Y4XnUkoTgpbDFX-68">
          <mxGeometry width="50" height="50" relative="1" as="geometry">
            <mxPoint x="75" y="365" as="sourcePoint" />
            <mxPoint x="240" y="165" as="targetPoint" />
          </mxGeometry>
        </mxCell>
        <mxCell id="o1Bgy9Y4XnUkoTgpbDFX-72" value="Modifier/ Effacer sa note&lt;span style=&quot;color: rgba(0, 0, 0, 0); font-family: monospace; font-size: 0px; text-align: start; text-wrap: nowrap;&quot;&gt;%3CmxGraphModel%3E%3Croot%3E%3CmxCell%20id%3D%220%22%2F%3E%3CmxCell%20id%3D%221%22%20parent%3D%220%22%2F%3E%3CmxCell%20id%3D%222%22%20value%3D%22R%C3%A9diger%20un%20avis%20sur%20un%20film%22%20style%3D%22ellipse%3BwhiteSpace%3Dwrap%3Bhtml%3D1%3B%22%20vertex%3D%221%22%20parent%3D%221%22%3E%3CmxGeometry%20x%3D%22660%22%20y%3D%22416%22%20width%3D%22156%22%20height%3D%2270%22%20as%3D%22geometry%22%2F%3E%3C%2FmxCell%3E%3C%2Froot%3E%3C%2FmxGraphModel%3E&lt;/span&gt;" style="ellipse;whiteSpace=wrap;html=1;" vertex="1" parent="1">
          <mxGeometry x="661" y="417" width="156" height="70" as="geometry" />
        </mxCell>
        <mxCell id="o1Bgy9Y4XnUkoTgpbDFX-73" value="Modifier / effacer son avis" style="ellipse;whiteSpace=wrap;html=1;" vertex="1" parent="1">
          <mxGeometry x="879" y="509" width="156" height="70" as="geometry" />
        </mxCell>
        <mxCell id="o1Bgy9Y4XnUkoTgpbDFX-74" value="S&#39;inscrire" style="ellipse;whiteSpace=wrap;html=1;" vertex="1" parent="1">
          <mxGeometry x="220" y="80" width="140" height="70" as="geometry" />
        </mxCell>
        <mxCell id="o1Bgy9Y4XnUkoTgpbDFX-75" value="Connaître la note moyenne des éclaireurs" style="ellipse;whiteSpace=wrap;html=1;" vertex="1" parent="1">
          <mxGeometry x="662" y="339" width="156" height="70" as="geometry" />
        </mxCell>
        <mxCell id="o1Bgy9Y4XnUkoTgpbDFX-76" value="" style="endArrow=none;html=1;rounded=0;entryX=0;entryY=0.5;entryDx=0;entryDy=0;exitX=1;exitY=0.5;exitDx=0;exitDy=0;fillColor=#e51400;strokeColor=#0F0000;fontColor=default;" edge="1" parent="1" source="o1Bgy9Y4XnUkoTgpbDFX-74" target="o1Bgy9Y4XnUkoTgpbDFX-11">
          <mxGeometry width="50" height="50" relative="1" as="geometry">
            <mxPoint x="65" y="355" as="sourcePoint" />
            <mxPoint x="230" y="125" as="targetPoint" />
          </mxGeometry>
        </mxCell>
        <mxCell id="o1Bgy9Y4XnUkoTgpbDFX-78" value="" style="endArrow=none;html=1;rounded=0;entryX=0;entryY=0.5;entryDx=0;entryDy=0;exitX=1;exitY=0.5;exitDx=0;exitDy=0;fillColor=#e51400;strokeColor=#000000;" edge="1" parent="1" source="o1Bgy9Y4XnUkoTgpbDFX-35" target="o1Bgy9Y4XnUkoTgpbDFX-75">
          <mxGeometry width="50" height="50" relative="1" as="geometry">
            <mxPoint x="624" y="125" as="sourcePoint" />
            <mxPoint x="678" y="163" as="targetPoint" />
          </mxGeometry>
        </mxCell>
        <mxCell id="o1Bgy9Y4XnUkoTgpbDFX-79" value="" style="endArrow=none;html=1;rounded=0;entryX=0;entryY=0.5;entryDx=0;entryDy=0;exitX=0.975;exitY=0.322;exitDx=0;exitDy=0;fillColor=#e51400;strokeColor=#000000;exitPerimeter=0;" edge="1" parent="1" source="o1Bgy9Y4XnUkoTgpbDFX-16" target="o1Bgy9Y4XnUkoTgpbDFX-72">
          <mxGeometry width="50" height="50" relative="1" as="geometry">
            <mxPoint x="634" y="135" as="sourcePoint" />
            <mxPoint x="688" y="173" as="targetPoint" />
          </mxGeometry>
        </mxCell>
        <mxCell id="o1Bgy9Y4XnUkoTgpbDFX-80" value="" style="endArrow=none;html=1;rounded=0;entryX=0;entryY=0.5;entryDx=0;entryDy=0;exitX=1;exitY=0.5;exitDx=0;exitDy=0;fillColor=#e51400;strokeColor=#000000;" edge="1" parent="1" source="o1Bgy9Y4XnUkoTgpbDFX-26" target="o1Bgy9Y4XnUkoTgpbDFX-73">
          <mxGeometry width="50" height="50" relative="1" as="geometry">
            <mxPoint x="644" y="145" as="sourcePoint" />
            <mxPoint x="698" y="183" as="targetPoint" />
          </mxGeometry>
        </mxCell>
        <mxCell id="o1Bgy9Y4XnUkoTgpbDFX-82" value="Utilisateur" style="shape=umlActor;verticalLabelPosition=bottom;verticalAlign=top;html=1;outlineConnect=0;" vertex="1" parent="1">
          <mxGeometry x="60" y="298" width="50" height="90" as="geometry" />
        </mxCell>
        <mxCell id="o1Bgy9Y4XnUkoTgpbDFX-85" value="" style="endArrow=none;html=1;rounded=0;entryX=0.5;entryY=0.5;entryDx=0;entryDy=0;exitX=0;exitY=0.5;exitDx=0;exitDy=0;fillColor=#e51400;strokeColor=#000000;entryPerimeter=0;" edge="1" parent="1" source="o1Bgy9Y4XnUkoTgpbDFX-13" target="o1Bgy9Y4XnUkoTgpbDFX-82">
          <mxGeometry width="50" height="50" relative="1" as="geometry">
            <mxPoint x="370" y="353" as="sourcePoint" />
            <mxPoint x="482" y="523" as="targetPoint" />
          </mxGeometry>
        </mxCell>
        <mxCell id="o1Bgy9Y4XnUkoTgpbDFX-86" value="" style="endArrow=none;html=1;rounded=0;entryX=0;entryY=0.5;entryDx=0;entryDy=0;exitX=0.5;exitY=0.5;exitDx=0;exitDy=0;fillColor=#e51400;strokeColor=#000000;exitPerimeter=0;" edge="1" parent="1" source="o1Bgy9Y4XnUkoTgpbDFX-82" target="o1Bgy9Y4XnUkoTgpbDFX-27">
          <mxGeometry width="50" height="50" relative="1" as="geometry">
            <mxPoint x="380" y="363" as="sourcePoint" />
            <mxPoint x="492" y="533" as="targetPoint" />
          </mxGeometry>
        </mxCell>
        <mxCell id="o1Bgy9Y4XnUkoTgpbDFX-87" value="" style="endArrow=none;html=1;rounded=0;exitX=0;exitY=0.5;exitDx=0;exitDy=0;fillColor=#e51400;strokeColor=#000000;entryX=0.5;entryY=0.5;entryDx=0;entryDy=0;entryPerimeter=0;" edge="1" parent="1" source="o1Bgy9Y4XnUkoTgpbDFX-30" target="o1Bgy9Y4XnUkoTgpbDFX-82">
          <mxGeometry width="50" height="50" relative="1" as="geometry">
            <mxPoint x="390" y="373" as="sourcePoint" />
            <mxPoint x="502" y="543" as="targetPoint" />
          </mxGeometry>
        </mxCell>
        <mxCell id="o1Bgy9Y4XnUkoTgpbDFX-88" value="" style="endArrow=none;html=1;rounded=0;entryX=0;entryY=0.5;entryDx=0;entryDy=0;exitX=0.5;exitY=0.5;exitDx=0;exitDy=0;fillColor=#e51400;strokeColor=#000000;exitPerimeter=0;" edge="1" parent="1" source="o1Bgy9Y4XnUkoTgpbDFX-82" target="o1Bgy9Y4XnUkoTgpbDFX-74">
          <mxGeometry width="50" height="50" relative="1" as="geometry">
            <mxPoint x="400" y="383" as="sourcePoint" />
            <mxPoint x="512" y="553" as="targetPoint" />
          </mxGeometry>
        </mxCell>
        <mxCell id="o1Bgy9Y4XnUkoTgpbDFX-95" value="Use" style="endArrow=open;endSize=12;dashed=1;html=1;rounded=0;edgeStyle=orthogonalEdgeStyle;entryX=0.5;entryY=1;entryDx=0;entryDy=0;exitX=0.5;exitY=1;exitDx=0;exitDy=0;fillColor=#60a917;strokeColor=#2D7600;strokeWidth=2;" edge="1" parent="1" source="o1Bgy9Y4XnUkoTgpbDFX-16" target="o1Bgy9Y4XnUkoTgpbDFX-11">
          <mxGeometry width="160" relative="1" as="geometry">
            <mxPoint x="450" y="370" as="sourcePoint" />
            <mxPoint x="380" y="220.17" as="targetPoint" />
            <Array as="points">
              <mxPoint x="544" y="548" />
              <mxPoint x="544" y="580" />
              <mxPoint x="210" y="580" />
              <mxPoint x="210" y="170" />
              <mxPoint x="543" y="170" />
              <mxPoint x="543" y="150" />
            </Array>
          </mxGeometry>
        </mxCell>
        <mxCell id="o1Bgy9Y4XnUkoTgpbDFX-96" value="Use" style="endArrow=open;endSize=12;dashed=1;html=1;rounded=0;edgeStyle=orthogonalEdgeStyle;exitX=0.5;exitY=0;exitDx=0;exitDy=0;entryX=0.5;entryY=1;entryDx=0;entryDy=0;fillColor=#008a00;strokeColor=#005700;strokeWidth=2;" edge="1" parent="1" source="o1Bgy9Y4XnUkoTgpbDFX-36" target="o1Bgy9Y4XnUkoTgpbDFX-11">
          <mxGeometry width="160" relative="1" as="geometry">
            <mxPoint x="607.5" y="637" as="sourcePoint" />
            <mxPoint x="669.0000000000002" y="150" as="targetPoint" />
            <Array as="points">
              <mxPoint x="544" y="637" />
              <mxPoint x="544" y="620" />
              <mxPoint x="210" y="620" />
              <mxPoint x="210" y="170" />
              <mxPoint x="544" y="170" />
            </Array>
          </mxGeometry>
        </mxCell>
        <mxCell id="o1Bgy9Y4XnUkoTgpbDFX-97" value="Depend" style="endArrow=open;endSize=12;dashed=1;html=1;rounded=0;edgeStyle=orthogonalEdgeStyle;entryX=0.5;entryY=1;entryDx=0;entryDy=0;exitX=0.5;exitY=1;exitDx=0;exitDy=0;fillColor=#008a00;strokeColor=#005700;strokeWidth=2;" edge="1" parent="1" source="o1Bgy9Y4XnUkoTgpbDFX-30" target="o1Bgy9Y4XnUkoTgpbDFX-11">
          <mxGeometry x="-0.0124" width="160" relative="1" as="geometry">
            <mxPoint x="562" y="568" as="sourcePoint" />
            <mxPoint x="564" y="170" as="targetPoint" />
            <Array as="points">
              <mxPoint x="310" y="870" />
              <mxPoint x="210" y="870" />
              <mxPoint x="210" y="170" />
              <mxPoint x="544" y="170" />
            </Array>
            <mxPoint as="offset" />
          </mxGeometry>
        </mxCell>
        <mxCell id="o1Bgy9Y4XnUkoTgpbDFX-98" value="Depend" style="edgeLabel;html=1;align=center;verticalAlign=middle;resizable=0;points=[];" connectable="0" vertex="1" parent="o1Bgy9Y4XnUkoTgpbDFX-97">
          <mxGeometry x="0.0374" relative="1" as="geometry">
            <mxPoint x="-1" as="offset" />
          </mxGeometry>
        </mxCell>
        <mxCell id="o1Bgy9Y4XnUkoTgpbDFX-99" value="Depend" style="edgeLabel;html=1;align=center;verticalAlign=middle;resizable=0;points=[];" connectable="0" vertex="1" parent="o1Bgy9Y4XnUkoTgpbDFX-97">
          <mxGeometry x="0.0147" y="-5" relative="1" as="geometry">
            <mxPoint x="-6" y="1" as="offset" />
          </mxGeometry>
        </mxCell>
        <mxCell id="o1Bgy9Y4XnUkoTgpbDFX-100" value="Depend" style="endArrow=open;endSize=12;dashed=1;html=1;rounded=0;edgeStyle=orthogonalEdgeStyle;exitX=0.5;exitY=0;exitDx=0;exitDy=0;fillColor=#60a917;strokeColor=#2D7600;strokeWidth=2;entryX=0.5;entryY=1;entryDx=0;entryDy=0;" edge="1" parent="1" source="o1Bgy9Y4XnUkoTgpbDFX-75" target="o1Bgy9Y4XnUkoTgpbDFX-11">
          <mxGeometry width="160" relative="1" as="geometry">
            <mxPoint x="552" y="558" as="sourcePoint" />
            <mxPoint x="550" y="160" as="targetPoint" />
            <Array as="points">
              <mxPoint x="740" y="310" />
              <mxPoint x="660" y="310" />
              <mxPoint x="660" y="170" />
              <mxPoint x="544" y="170" />
            </Array>
          </mxGeometry>
        </mxCell>
      </root>
    </mxGraphModel>
  </diagram>
</mxfile>
